PathFileType	4	(x/y/z)	S08_M20_T09
DataRate	CameraRate	NumFrames	NumMarkers	Units	OrigDataRate	OrigDataStartFrame	OrigNumFrames
240	240	10	51	mm	240	1	510
Frame#	Time	Sternum			R.Acromium			L.Acromium			Top.Head			R.ASIS			L.ASIS			R.PSIS			L.PSIS			R.Great.Tro			L.Great.Tro			R.Iliac.Crest			L.Iliac.Crest			V.Sacral			R.Thigh.Upper.Post			R.Thigh.Lower.Ant			R.Thigh.Lower.Post			R.Thigh.Upper.Ant			R.Knee.Lat			R.Knee.Med			R.Shank.Upper.Post			R.Shank.Lower.Ant			R.Shank.Lower.Post			R.Shank.Upper.Ant			R.Ankle.Lat			R.Ankle.Med			R.Heel.Upper			R.Heel.Med			R.Heel.Lat			R.Toe.Lat			R.Toe.Med			R.Toe.Tip			L.Thigh.Upper.Post			L.Thigh.Lower.Ant			L.Thigh.Lower.Post			L.Thigh.Upper.Ant			L.Knee.Lat			L.Knee.Med			L.Shank.Upper.Post			L.Shank.Lower.Ant			L.Shank.Lower.Post			L.Shank.Upper.Ant			L.Ankle.Lat			L.Ankle.Med			L.Heel.Upper			L.Heel.Med			L.Heel.Lat			L.Toe.Lat			L.Toe.Med			L.Toe.Tip			Cervical.Spine			Back			
		X1	Y1	Z1	X2	Y2	Z2	X3	Y3	Z3	X4	Y4	Z4	X5	Y5	Z5	X6	Y6	Z6	X7	Y7	Z7	X8	Y8	Z8	X9	Y9	Z9	X10	Y10	Z10	X11	Y11	Z11	X12	Y12	Z12	X13	Y13	Z13	X14	Y14	Z14	X15	Y15	Z15	X16	Y16	Z16	X17	Y17	Z17	X18	Y18	Z18	X19	Y19	Z19	X20	Y20	Z20	X21	Y21	Z21	X22	Y22	Z22	X23	Y23	Z23	X24	Y24	Z24	X25	Y25	Z25	X26	Y26	Z26	X27	Y27	Z27	X28	Y28	Z28	X29	Y29	Z29	X30	Y30	Z30	X31	Y31	Z31	X32	Y32	Z32	X33	Y33	Z33	X34	Y34	Z34	X35	Y35	Z35	X36	Y36	Z36	X37	Y37	Z37	X38	Y38	Z38	X39	Y39	Z39	X40	Y40	Z40	X41	Y41	Z41	X42	Y42	Z42	X43	Y43	Z43	X44	Y44	Z44	X45	Y45	Z45	X46	Y46	Z46	X47	Y47	Z47	X48	Y48	Z48	X49	Y49	Z49	X50	Y50	Z50	X51	Y51	Z51	

1	0	NaN	NaN	NaN	-1752.8	1431.5	515.99	-1775	1467	183.36	-1720.8	1754.2	363.47	NaN	NaN	NaN	NaN	NaN	NaN	NaN	NaN	NaN	NaN	NaN	NaN	-1765.8	888.46	524.36	-1713.3	879.96	155.79	-1777.5	1060.9	496.88	-1727.4	1063.5	185.94	-1865.3	971.08	310.33	-1851.3	709.3	500.59	NaN	NaN	NaN	NaN	NaN	NaN	NaN	NaN	NaN	-1881	511.31	456.29	-1891.9	524.26	328.61	NaN	NaN	NaN	NaN	NaN	NaN	NaN	NaN	NaN	NaN	NaN	NaN	NaN	NaN	NaN	-2087.1	156.31	315.76	-2178.3	129.34	344.33	NaN	NaN	NaN	-2188.9	109.21	377.79	-2018.3	41.73	423.89	NaN	NaN	NaN	NaN	NaN	NaN	-1636.8	672.42	169.92	-1518.1	630.29	198.68	-1584.1	600.09	189.71	-1567.7	701.41	173.18	-1524.4	521.44	210.45	-1520.2	522.14	333.94	-1499.8	333.6	208.04	NaN	NaN	NaN	-1471.2	266.81	223.82	-1435.4	351.69	213.67	-1369.3	119.19	237.39	-1352	138.58	323.23	NaN	NaN	NaN	NaN	NaN	NaN	-1377	45.418	256.9	-1222.1	129.44	225.62	-1213	147.85	337.73	-1168.4	195.97	288.2	-1829.9	1496	349.29	-1881.3	1211.3	350.22
2	0.0041667	NaN	NaN	NaN	-1747.4	1430.9	515.63	-1769.8	1466.5	183.01	-1716.2	1753.8	363.08	NaN	NaN	NaN	NaN	NaN	NaN	NaN	NaN	NaN	NaN	NaN	NaN	-1760.6	888.02	523.97	-1707.4	879.76	155.48	-1771.8	1060.3	496.6	-1721.7	1063.1	185.67	-1859.5	970.67	309.85	-1846.5	709.2	500.18	NaN	NaN	NaN	NaN	NaN	NaN	NaN	NaN	NaN	-1876.7	511.22	456.25	-1887.2	524.07	328.52	NaN	NaN	NaN	NaN	NaN	NaN	NaN	NaN	NaN	NaN	NaN	NaN	NaN	NaN	NaN	-2085.2	157.6	316.16	-2176.7	131.79	344.53	NaN	NaN	NaN	-2186.6	110.84	377.9	-2018.1	41.791	423.93	NaN	NaN	NaN	NaN	NaN	NaN	-1630.9	672.1	169.98	-1512.3	630.02	199.02	-1578.2	599.84	189.96	-1561.8	701.09	173.4	-1518.9	520.96	210.8	-1514.6	521.87	334.28	-1495.8	332.95	208.07	NaN	NaN	NaN	-1467.8	265.89	223.84	-1431.3	350.45	214.02	-1367.5	117.62	237.48	-1350.1	136.55	323.5	NaN	NaN	NaN	NaN	NaN	NaN	-1376	44.378	256.9	-1220.2	126.53	225.96	-1211	144.45	338.13	-1165.9	192.43	288.85	-1824.7	1495.5	348.95	-1875.8	1210.7	349.95
3	0.0083333	NaN	NaN	NaN	-1741.9	1430.4	515.24	-1764.4	1465.9	182.65	-1711.3	1753.4	362.67	NaN	NaN	NaN	NaN	NaN	NaN	NaN	NaN	NaN	NaN	NaN	NaN	-1755.1	887.57	523.56	-1701.1	879.56	155.17	-1765.9	1059.7	496.3	-1715.7	1062.8	185.38	-1853.4	970.26	309.35	-1841.5	709.09	499.75	NaN	NaN	NaN	NaN	NaN	NaN	NaN	NaN	NaN	-1872.1	511.12	456.22	-1882.3	523.87	328.44	NaN	NaN	NaN	NaN	NaN	NaN	NaN	NaN	NaN	NaN	NaN	NaN	NaN	NaN	NaN	-2083.2	158.95	316.58	-2175	134.37	344.74	NaN	NaN	NaN	-2184.2	112.62	378.01	-2017.9	41.857	423.96	NaN	NaN	NaN	NaN	NaN	NaN	-1624.9	671.78	170.03	-1506.3	629.73	199.38	-1572	599.58	190.21	-1555.7	700.75	173.63	-1513.2	520.46	211.14	-1508.9	521.57	334.62	-1491.6	332.29	208.1	NaN	NaN	NaN	-1464.3	264.94	223.86	-1427.1	349.18	214.4	-1365.6	116.02	237.59	-1348.1	134.48	323.79	NaN	NaN	NaN	NaN	NaN	NaN	-1374.9	43.368	256.9	-1218.3	123.5	226.32	-1208.9	140.92	338.54	-1163.3	188.71	289.53	-1819.4	1494.9	348.59	-1870.1	1210	349.66
4	0.0125	NaN	NaN	NaN	-1736.2	1429.9	514.84	-1758.8	1465.4	182.27	-1706.3	1753	362.26	NaN	NaN	NaN	NaN	NaN	NaN	NaN	NaN	NaN	NaN	NaN	NaN	-1749.5	887.12	523.13	-1694.6	879.35	154.84	-1759.8	1059.1	495.98	-1709.5	1062.4	185.08	-1847.1	969.87	308.82	-1836.3	708.98	499.3	-1782.2	591.68	463.64	NaN	NaN	NaN	NaN	NaN	NaN	-1867.3	511.03	456.19	-1877.1	523.66	328.35	NaN	NaN	NaN	NaN	NaN	NaN	NaN	NaN	NaN	NaN	NaN	NaN	NaN	NaN	NaN	-2081	160.36	317.04	-2173.1	137.08	344.98	NaN	NaN	NaN	-2181.8	114.58	378.15	-2017.7	41.929	424	NaN	NaN	NaN	NaN	NaN	NaN	-1618.6	671.48	170.1	-1500	629.4	199.74	-1565.7	599.31	190.47	-1549.4	700.39	173.88	-1507.3	519.95	211.49	-1503	521.24	334.96	-1487.3	331.61	208.14	NaN	NaN	NaN	-1460.7	263.97	223.89	-1422.7	347.89	214.79	-1363.6	114.41	237.7	-1346	132.38	324.1	NaN	NaN	NaN	NaN	NaN	NaN	-1373.8	42.411	256.92	-1216.4	120.38	226.71	-1206.7	137.26	338.97	-1160.6	184.85	290.22	-1813.8	1494.3	348.22	-1864.1	1209.4	349.36
5	0.016667	NaN	NaN	NaN	-1730.3	1429.4	514.43	-1753.1	1464.8	181.87	-1701.1	1752.6	361.84	NaN	NaN	NaN	NaN	NaN	NaN	NaN	NaN	NaN	NaN	NaN	NaN	-1743.6	886.66	522.68	-1687.8	879.14	154.51	-1753.5	1058.5	495.66	-1703.1	1062.1	184.76	-1840.6	969.49	308.28	-1830.8	708.87	498.84	-1778.5	591.62	463.98	NaN	NaN	NaN	NaN	NaN	NaN	-1862.3	510.93	456.18	-1871.7	523.43	328.28	NaN	NaN	NaN	NaN	NaN	NaN	NaN	NaN	NaN	NaN	NaN	NaN	NaN	NaN	NaN	-2078.7	161.82	317.52	-2171.1	139.91	345.25	NaN	NaN	NaN	-2179.3	116.71	378.31	-2017.5	42.01	424.04	NaN	NaN	NaN	NaN	NaN	NaN	-1612.1	671.19	170.17	-1493.7	629.03	200.11	-1559.3	599.02	190.73	-1543	700.03	174.13	-1501.3	519.42	211.82	-1497.1	520.87	335.29	-1482.9	330.92	208.17	NaN	NaN	NaN	-1457	263.01	223.92	-1418.2	346.6	215.2	-1361.5	112.8	237.82	-1343.8	130.29	324.41	NaN	NaN	NaN	NaN	NaN	NaN	-1372.6	41.529	256.95	-1214.3	117.19	227.12	-1204.5	133.52	339.41	-1157.8	180.87	290.92	-1808.1	1493.7	347.82	-1857.9	1208.7	349.05
6	0.020833	NaN	NaN	NaN	-1724.3	1428.9	513.99	-1747.2	1464.3	181.45	-1695.8	1752.2	361.41	NaN	NaN	NaN	NaN	NaN	NaN	NaN	NaN	NaN	NaN	NaN	NaN	-1737.5	886.21	522.22	-1680.8	878.94	154.17	-1747	1057.9	495.33	-1696.5	1061.8	184.43	-1833.9	969.13	307.73	-1825.2	708.75	498.37	-1774.4	591.52	464.32	NaN	NaN	NaN	NaN	NaN	NaN	-1857.2	510.84	456.19	-1866	523.19	328.21	NaN	NaN	NaN	NaN	NaN	NaN	NaN	NaN	NaN	NaN	NaN	NaN	NaN	NaN	NaN	-2076.3	163.32	318.04	-2169	142.86	345.54	NaN	NaN	NaN	-2176.8	119.03	378.49	-2017.2	42.101	424.09	NaN	NaN	NaN	NaN	NaN	NaN	-1605.6	670.92	170.25	-1487.3	628.64	200.48	-1552.8	598.74	190.99	-1536.4	699.67	174.38	-1495.3	518.88	212.13	-1491.1	520.47	335.6	-1478.3	330.25	208.2	NaN	NaN	NaN	-1453.1	262.06	223.95	-1413.6	345.32	215.62	-1359.3	111.21	237.95	-1341.6	128.23	324.74	NaN	NaN	NaN	NaN	NaN	NaN	-1371.4	40.739	257.01	-1212.2	113.94	227.55	-1202.2	129.71	339.87	-1154.9	176.78	291.63	-1802.3	1493.2	347.42	-1851.6	1208.1	348.72
7	0.025	NaN	NaN	NaN	-1718.2	1428.4	513.55	-1741.2	1463.7	181.01	-1690.4	1751.9	360.99	NaN	NaN	NaN	NaN	NaN	NaN	NaN	NaN	NaN	NaN	NaN	NaN	-1731.3	885.77	521.75	-1673.6	878.74	153.83	-1740.4	1057.3	495	-1689.8	1061.5	184.1	-1827.1	968.81	307.16	-1819.4	708.63	497.89	-1770.1	591.38	464.66	NaN	NaN	NaN	NaN	NaN	NaN	-1851.8	510.76	456.21	-1860.2	522.93	328.15	NaN	NaN	NaN	NaN	NaN	NaN	NaN	NaN	NaN	NaN	NaN	NaN	NaN	NaN	NaN	-2073.7	164.87	318.59	-2166.7	145.92	345.87	NaN	NaN	NaN	-2174.3	121.54	378.7	-2016.9	42.206	424.14	NaN	NaN	NaN	NaN	NaN	NaN	-1599	670.69	170.33	-1480.8	628.23	200.84	-1546.3	598.45	191.24	-1529.8	699.3	174.63	-1489.2	518.34	212.43	-1485.2	520.04	335.89	-1473.7	329.58	208.22	NaN	NaN	NaN	-1449.3	261.13	223.98	-1409	344.07	216.04	-1357	109.66	238.08	-1339.3	126.2	325.07	NaN	NaN	NaN	NaN	NaN	NaN	-1370.2	40.055	257.08	-1210.1	110.67	228	-1199.9	125.87	340.32	-1152	172.6	292.33	-1796.3	1492.6	346.99	-1845.2	1207.4	348.38
8	0.029167	NaN	NaN	NaN	-1712	1427.9	513.09	-1735.1	1463.2	180.55	-1684.9	1751.5	360.57	NaN	NaN	NaN	NaN	NaN	NaN	NaN	NaN	NaN	NaN	NaN	NaN	-1725	885.33	521.26	-1666.1	878.55	153.49	-1733.6	1056.7	494.66	-1682.9	1061.3	183.75	-1820.2	968.52	306.59	-1813.5	708.5	497.41	-1765.5	591.21	465	NaN	NaN	NaN	NaN	NaN	NaN	-1846.3	510.67	456.25	-1854.2	522.65	328.11	NaN	NaN	NaN	NaN	NaN	NaN	NaN	NaN	NaN	NaN	NaN	NaN	NaN	NaN	NaN	-2071	166.46	319.18	-2164.2	149.08	346.22	NaN	NaN	NaN	-2171.7	124.24	378.94	-2016.6	42.329	424.19	NaN	NaN	NaN	NaN	NaN	NaN	-1592.3	670.49	170.41	-1474.3	627.8	201.19	-1539.8	598.17	191.48	-1523.1	698.95	174.88	-1483.1	517.81	212.7	-1479.3	519.59	336.16	-1469.1	328.94	208.25	NaN	NaN	NaN	-1445.3	260.24	224.01	-1404.3	342.84	216.46	-1354.7	108.15	238.22	-1336.9	124.24	325.42	NaN	NaN	NaN	NaN	NaN	NaN	-1369.1	39.486	257.17	-1208	107.37	228.46	-1197.6	121.99	340.79	-1149.1	168.35	293.03	-1790.3	1492.1	346.55	-1838.6	1206.8	348.03
9	0.033333	NaN	NaN	NaN	-1705.7	1427.5	512.61	-1729	1462.8	180.08	-1679.3	1751.3	360.15	NaN	NaN	NaN	NaN	NaN	NaN	NaN	NaN	NaN	NaN	NaN	NaN	-1718.5	884.91	520.77	-1658.5	878.38	153.14	-1726.8	1056.2	494.33	-1675.9	1061.1	183.4	-1813.2	968.28	306.01	-1807.4	708.36	496.91	-1760.6	590.99	465.34	NaN	NaN	NaN	NaN	NaN	NaN	-1840.6	510.58	456.32	-1848	522.35	328.09	NaN	NaN	NaN	NaN	NaN	NaN	NaN	NaN	NaN	NaN	NaN	NaN	NaN	NaN	NaN	-2068.1	168.08	319.8	-2161.5	152.35	346.62	NaN	NaN	NaN	-2169	127.13	379.22	-2016.3	42.475	424.25	NaN	NaN	NaN	NaN	NaN	NaN	-1585.6	670.34	170.48	-1467.8	627.36	201.52	-1533.3	597.91	191.7	-1516.3	698.61	175.11	-1477	517.3	212.93	-1473.5	519.12	336.41	-1464.4	328.34	208.26	NaN	NaN	NaN	-1441.3	259.39	224.03	-1399.6	341.67	216.88	-1352.3	106.71	238.37	-1334.5	122.36	325.76	NaN	NaN	NaN	NaN	NaN	NaN	-1367.9	39.039	257.27	-1205.9	104.07	228.93	-1195.3	118.12	341.25	-1146.1	164.05	293.72	-1784.2	1491.6	346.1	-1832	1206.2	347.67
10	0.0375	NaN	NaN	NaN	-1699.4	1427.1	512.13	-1722.8	1462.3	179.59	-1673.7	1751	359.74	NaN	NaN	NaN	NaN	NaN	NaN	NaN	NaN	NaN	NaN	NaN	NaN	-1712	884.5	520.26	-1650.8	878.25	152.79	-1719.9	1055.7	493.99	-1668.9	1060.9	183.04	-1806.1	968.09	305.44	-1801.2	708.21	496.42	-1755.4	590.71	465.67	NaN	NaN	NaN	NaN	NaN	NaN	-1834.8	510.48	456.42	-1841.6	522.01	328.08	NaN	NaN	NaN	NaN	NaN	NaN	NaN	NaN	NaN	NaN	NaN	NaN	NaN	NaN	NaN	-2065.1	169.74	320.46	-2158.6	155.73	347.05	NaN	NaN	NaN	-2166.2	130.21	379.54	-2016	42.649	424.32	NaN	NaN	NaN	NaN	NaN	NaN	-1578.9	670.25	170.54	-1461.3	626.92	201.83	-1526.8	597.67	191.9	-1509.6	698.3	175.33	-1471	516.81	213.13	-1467.8	518.64	336.62	-1459.7	327.78	208.27	NaN	NaN	NaN	-1437.3	258.6	224.06	-1394.9	340.54	217.29	-1349.9	105.35	238.51	-1332.1	120.57	326.1	NaN	NaN	NaN	NaN	NaN	NaN	-1366.7	38.713	257.39	-1203.8	100.78	229.41	-1193	114.26	341.7	-1143.1	159.73	294.39	-1778.1	1491.1	345.63	-1825.3	1205.6	347.3
